# xmcd
#
# Track frame offsets:
#	150
#	14855
#	31357
#	48830
#	65632
#	78582
#	95252
#
# Disc length: 1474 seconds
#
# Revision: 0
# Processed by: cddbd v1.5.2PL0 Copyright (c) Steve Scherf et al.
# Submitted via: audiograbber 1.83.01
#
DISCID=5705c007
DTITLE=Various Artist - BNA Records Presents The Sizzlin Summer Hits of 97
DYEAR=1997
DGENRE=Country
TTITLE0=What if I do - Mindy McCready
TTITLE1=I'm Your Man - Jason Sellers
TTITLE2=You Walked In - Lonestar
TTITLE3=Chance - Kenny Chesney
TTITLE4=Go Away - Lorrie Morgan
TTITLE5=Come Cryin' To Me - Lonestar
TTITLE6=She's got it all - Kenny Chesney
EXTD=
EXTT0=
EXTT1=
EXTT2=
EXTT3=
EXTT4=
EXTT5=
EXTT6=
PLAYORDER=
